<svg xmlns="http://www.w3.org/2000/svg" height="40px" viewBox="0 -960 960 960" width="40px" fill="#FFFFFF"><path d="M528-412v-48.67H416q-15 0-25.5-10.5t-10.5-25.5V-564q0-15.67 10.17-25.83Q400.33-600 416-600h138q11 0 18.5 7.5T580-574q0 11-7.5 18.5T554-548H432v48.67h112q15 0 25.5 10.5t10.5 25.5V-396q0 15.67-10.17 25.83Q559.67-360 544-360H406q-11 0-18.5-7.5T380-386q0-11 7.5-18.5T406-412h122Zm260 0v-48.67H676q-15 0-25.5-10.5t-10.5-25.5V-564q0-15.67 10.17-25.83Q660.33-600 676-600h138q11 0 18.5 7.5T840-574q0 11-7.5 18.5T814-548H692v48.67h112q15 0 25.5 10.5t10.5 25.5V-396q0 15.67-10.17 25.83Q819.67-360 804-360H666q-11 0-18.5-7.5T640-386q0-11 7.5-18.5T666-412h122Zm-632 52q-15 0-25.5-10.5T120-396v-168q0-15 10.5-25.5T156-600h132.67q15 0 25.5 10.5t10.5 25.5v22.33q0 10.67-7.67 17.84-7.67 7.16-18.33 7.16-11.67 0-18.84-7.16-7.16-7.17-7.16-18.84V-548H172v136h100.67v-5.33q0-10.67 7.16-18.34 7.17-7.66 18.84-7.66 10.66 0 18.33 7.66 7.67 7.67 7.67 18.34V-396q0 15-10.5 25.5t-25.5 10.5H156Z"/></svg>