<svg xmlns="http://www.w3.org/2000/svg" height="40px" viewBox="0 -960 960 960" width="40px" fill="#FFFFFF"><path d="M0-386v-188q0-11.27 7.5-18.63Q15-600 26-600t18.5 7.37Q52-585.27 52-574v60h98.67v-60q0-11.27 7.5-18.63 7.5-7.37 18.5-7.37t18.5 7.37q7.5 7.36 7.5 18.63v188q0 11.27-7.5 18.63-7.5 7.37-18.5 7.37t-18.5-7.37q-7.5-7.36-7.5-18.63v-76H52v76q0 11.27-7.5 18.63Q37-360 26-360t-18.5-7.37Q0-374.73 0-386Zm314 0v-162h-44q-11.27 0-18.63-7.5Q244-563 244-574t7.37-18.5q7.36-7.5 18.63-7.5h140q11.27 0 18.63 7.5Q436-585 436-574t-7.37 18.5Q421.27-548 410-548h-44v162q0 11.27-7.5 18.63Q351-360 340-360t-18.5-7.37Q314-374.73 314-386Zm163.33 0v-178q0-15.67 10.17-25.83Q497.67-600 513.33-600h193.34q15.66 0 25.83 10.17 10.17 10.16 10.17 25.83v178q0 11.27-7.5 18.63-7.5 7.37-18.5 7.37t-18.5-7.37q-7.5-7.36-7.5-18.63v-162H636v120.67q0 11.26-7.37 18.63-7.36 7.37-18.63 7.37t-18.63-7.37q-7.37-7.37-7.37-18.63V-548h-54.67v162q0 11.27-7.5 18.63-7.5 7.37-18.5 7.37t-18.5-7.37q-7.5-7.36-7.5-18.63Zm349.34 26q-10.34 0-17.84-7.17-7.5-7.16-7.5-17.5V-574q0-11.27 7.5-18.63 7.5-7.37 18.5-7.37t18.5 7.37q7.5 7.36 7.5 18.63v162H934q11.27 0 18.63 7.5Q960-397 960-386t-7.37 18.5Q945.27-360 934-360H826.67Z"/></svg>